<svg xmlns="http://www.w3.org/2000/svg" width="800" height="800" viewBox="0 0 800 800" fill="none" role="img" aria-label="Placa de circuito de inteligencia artificial">
  <defs>
    <linearGradient id="ccBg" x1="0" y1="0" x2="1" y2="1">
      <stop offset="0" stop-color="#0A2E38"/>
      <stop offset="1" stop-color="#123E4A"/>
    </linearGradient>
  </defs>
  <rect width="800" height="800" rx="32" fill="url(#ccBg)"/>
  <g stroke="#2A7A8C" stroke-width="5" fill="none">
    <path d="M120 200 h180 v120 h160"/>
    <path d="M120 400 h120 v200 h240"/>
    <path d="M680 160 h-200 v160 h-120"/>
    <path d="M680 420 h-140 v220 h-160"/>
    <path d="M400 120 v160"/>
  </g>
  <g fill="#3A8FA3">
    <circle cx="300" cy="320" r="14"/><circle cx="460" cy="320" r="14"/><circle cx="240" cy="600" r="14"/><circle cx="480" cy="640" r="14"/><circle cx="360" cy="360" r="14"/>
  </g>
  <g fill="#5FB3C4">
    <rect x="120" y="185" width="30" height="30" rx="6"/><rect x="665" y="145" width="30" height="30" rx="6"/><rect x="665" y="405" width="30" height="30" rx="6"/><rect x="385" y="105" width="30" height="30" rx="6"/>
  </g>
  <rect x="320" y="380" width="160" height="160" rx="20" fill="#1B5E6E" stroke="#5FB3C4" stroke-width="5"/>
  <text x="400" y="480" font-family="DM Sans, Arial, sans-serif" font-size="44" font-weight="700" fill="#FFFFFF" text-anchor="middle">IA</text>
</svg>
