<svg xmlns="http://www.w3.org/2000/svg" width="800" height="800" viewBox="0 0 800 800" fill="none" role="img" aria-label="Nos de dados conectados por inteligencia artificial">
  <defs>
    <radialGradient id="dnBg" cx="0.5" cy="0.4" r="0.7">
      <stop offset="0" stop-color="#1B5E6E"/>
      <stop offset="1" stop-color="#08343F"/>
    </radialGradient>
  </defs>
  <rect width="800" height="800" rx="32" fill="url(#dnBg)"/>
  <g stroke="#2A7A8C" stroke-width="2" opacity="0.8">
    <line x1="200" y1="180" x2="380" y2="300"/><line x1="380" y1="300" x2="620" y2="220"/><line x1="380" y1="300" x2="300" y2="520"/>
    <line x1="620" y1="220" x2="640" y2="440"/><line x1="300" y1="520" x2="500" y2="600"/><line x1="640" y1="440" x2="500" y2="600"/>
    <line x1="200" y1="180" x2="300" y2="520"/><line x1="640" y1="440" x2="380" y2="300"/><line x1="500" y1="600" x2="620" y2="220"/>
  </g>
  <g>
    <circle cx="200" cy="180" r="18" fill="#3A8FA3"/><circle cx="620" cy="220" r="22" fill="#5FB3C4"/>
    <circle cx="380" cy="300" r="30" fill="#FFFFFF"/><circle cx="640" cy="440" r="18" fill="#3A8FA3"/>
    <circle cx="300" cy="520" r="24" fill="#5FB3C4"/><circle cx="500" cy="600" r="20" fill="#3A8FA3"/>
  </g>
  <g fill="#5FB3C4" opacity="0.5">
    <circle cx="150" cy="420" r="6"/><circle cx="700" cy="600" r="6"/><circle cx="470" cy="150" r="6"/><circle cx="250" cy="680" r="6"/>
  </g>
</svg>
